<svg xmlns="http://www.w3.org/2000/svg" xmlns:xlink="http://www.w3.org/1999/xlink" zoomAndPan="magnify" preserveAspectRatio="xMidYMid meet" version="1.0" viewBox="355.43 355.68 647.64 647.64"><defs><g/><clipPath id="7aadad74e0"><path d="M 355.425781 355.675781 L 1003.066406 355.675781 L 1003.066406 1003.316406 L 355.425781 1003.316406 Z M 355.425781 355.675781 " clip-rule="nonzero"/></clipPath><clipPath id="76e1dc0f83"><path d="M 679.246094 355.675781 C 500.40625 355.675781 355.425781 500.65625 355.425781 679.496094 C 355.425781 858.339844 500.40625 1003.316406 679.246094 1003.316406 C 858.085938 1003.316406 1003.066406 858.339844 1003.066406 679.496094 C 1003.066406 500.65625 858.085938 355.675781 679.246094 355.675781 Z M 679.246094 355.675781 " clip-rule="nonzero"/></clipPath></defs><g clip-path="url(#7aadad74e0)"><g clip-path="url(#76e1dc0f83)"><path fill="#353f5e" d="M 355.425781 355.675781 L 1003.066406 355.675781 L 1003.066406 1003.316406 L 355.425781 1003.316406 Z M 355.425781 355.675781 " fill-opacity="1" fill-rule="nonzero"/></g></g><path stroke-linecap="butt" transform="matrix(47.620705, 0, 0, 47.620705, 355.425312, 298.531541)" fill="none" stroke-linejoin="miter" d="M 1.068348 14.679713 C 1.025365 14.660191 1.009779 14.628938 1.021509 14.585955 C 1.029302 14.562495 1.039064 14.537148 1.050794 14.50975 C 1.070316 14.466768 1.091808 14.425753 1.115268 14.386708 C 1.138646 14.347662 1.162106 14.308617 1.185566 14.269571 C 1.349623 13.980503 1.515648 13.691435 1.683561 13.402367 C 1.851555 13.113299 2.01758 12.8262 2.181637 12.540987 C 2.412137 12.134782 2.642555 11.730464 2.873054 11.328115 C 3.103554 10.925766 3.333972 10.523417 3.564472 10.121067 L 3.63477 9.968741 C 3.681608 9.824207 3.72172 9.679673 3.75486 9.535139 C 3.788081 9.390604 3.804651 9.242215 3.804651 9.089806 C 3.804651 8.9844 3.795874 8.88088 3.77832 8.779329 C 3.760766 8.677696 3.728528 8.578113 3.681608 8.480499 C 3.619103 8.355488 3.540027 8.246062 3.4443 8.152304 C 3.348655 8.058627 3.238245 7.980454 3.113316 7.917949 C 3.023412 7.874966 2.939415 7.855443 2.861324 7.85938 C 2.810549 7.863318 2.761742 7.863318 2.714822 7.85938 C 2.667983 7.855443 2.619176 7.853556 2.568319 7.853556 C 2.556671 7.853556 2.544941 7.852572 2.533211 7.850603 C 2.521481 7.848635 2.509751 7.84765 2.498021 7.84765 C 2.435515 7.83592 2.404262 7.800812 2.404262 7.742162 L 2.404262 7.730432 C 2.404262 7.679656 2.433628 7.648403 2.492197 7.636755 C 2.507782 7.632818 2.522465 7.629865 2.536164 7.627896 C 2.54978 7.62601 2.562495 7.625025 2.574225 7.625025 L 2.878878 7.642579 C 2.910131 7.646517 2.938513 7.650372 2.96386 7.654309 C 2.989289 7.658165 3.01562 7.660133 3.042935 7.660133 C 3.140631 7.660133 3.238245 7.657262 3.335941 7.651356 C 3.433554 7.645532 3.53125 7.640611 3.628946 7.636755 C 3.765605 7.632818 3.903331 7.62601 4.041959 7.616248 C 4.180669 7.606405 4.320281 7.599597 4.46096 7.595741 C 4.578097 7.591804 4.695315 7.586882 4.812534 7.581058 C 4.92967 7.575234 5.046889 7.570312 5.164025 7.566375 C 5.359335 7.285182 5.554727 7.005875 5.750036 6.728537 C 5.945346 6.451199 6.136718 6.171892 6.324235 5.890617 C 6.332028 5.882824 6.336949 5.874047 6.338836 5.864286 C 6.340805 5.854524 6.343758 5.847634 6.347695 5.843779 C 6.343758 5.839841 6.33982 5.835904 6.335965 5.832049 C 6.332028 5.828111 6.326204 5.826143 6.318329 5.826143 C 6.271491 5.826143 6.236301 5.808589 6.212922 5.773398 C 6.205048 5.76175 6.201192 5.740259 6.201192 5.709006 C 6.201192 5.685546 6.203161 5.667992 6.207016 5.656262 C 6.234414 5.578089 6.275428 5.505822 6.330059 5.439461 C 6.349582 5.419938 6.371073 5.410177 6.394533 5.410177 C 6.417993 5.410177 6.441372 5.408208 6.464832 5.404271 C 6.562527 5.279259 6.660141 5.153346 6.757837 5.026366 C 6.855451 4.899386 6.951178 4.773472 7.044936 4.648461 C 7.275354 4.335933 7.503885 4.020534 7.730448 3.702181 C 7.95701 3.383829 8.177749 3.064493 8.392581 2.744172 C 8.423834 2.701189 8.454102 2.657222 8.483386 2.61227 C 8.512671 2.567401 8.542939 2.525402 8.574192 2.486357 C 8.605445 2.451166 8.634729 2.421882 8.662126 2.398422 C 8.681649 2.386692 8.699203 2.380868 8.714871 2.380868 C 8.738249 2.380868 8.75974 2.388661 8.779263 2.404328 C 8.798868 2.419914 8.808629 2.441405 8.808629 2.46872 C 8.808629 2.515641 8.798868 2.554686 8.779263 2.585939 C 8.755885 2.624985 8.735378 2.66403 8.717742 2.703158 C 8.700187 2.742203 8.67968 2.781249 8.65622 2.820294 C 8.582067 2.941368 8.505862 3.062524 8.427771 3.183598 C 8.349598 3.304672 8.269538 3.423859 8.18751 3.540996 L 6.447278 6.01366 C 6.287076 6.244159 6.125972 6.474577 5.963884 6.705077 C 5.801796 6.935577 5.638642 7.165994 5.474585 7.396494 C 5.458999 7.416017 5.445301 7.437508 5.433571 7.460969 C 5.421841 7.484347 5.406255 7.507807 5.386732 7.531267 C 5.417985 7.546852 5.439477 7.554727 5.451207 7.554727 C 5.658164 7.554727 5.866188 7.547837 6.075197 7.53422 C 6.284205 7.520521 6.492147 7.507807 6.699187 7.496077 L 7.34959 7.460969 C 7.619135 7.445301 7.888681 7.427747 8.158226 7.408224 C 8.427771 7.388702 8.697234 7.37894 8.96678 7.37894 C 8.97851 7.37894 8.99024 7.37894 9.00197 7.37894 C 9.0137 7.37894 9.027317 7.376971 9.042984 7.373034 L 9.083998 7.32029 C 9.357399 6.902355 9.644498 6.496069 9.945296 6.101594 C 10.246095 5.707037 10.550748 5.316418 10.859339 4.929654 C 11.01954 4.730489 11.183597 4.533211 11.351591 4.337901 C 11.519503 4.142592 11.68356 3.945314 11.843762 3.746067 C 11.8906 3.687498 11.939489 3.632785 11.990264 3.58201 C 12.021517 3.550757 12.050801 3.527379 12.078117 3.511711 C 12.089847 3.503919 12.107401 3.499981 12.130861 3.499981 C 12.189429 3.499981 12.222651 3.531234 12.230443 3.59374 C 12.238318 3.613263 12.238318 3.634754 12.230443 3.658214 C 12.222651 3.681674 12.215842 3.705052 12.209936 3.728513 C 12.204112 3.751973 12.197304 3.773464 12.189429 3.792987 C 12.162114 3.863285 12.130861 3.932599 12.095671 4.001011 C 12.060563 4.069341 12.023404 4.136686 11.984358 4.203129 C 11.964836 4.238319 11.944328 4.272443 11.922837 4.305664 C 11.901346 4.338886 11.884776 4.376947 11.873046 4.41993 C 11.869108 4.43166 11.864269 4.442406 11.858363 4.452167 C 11.852539 4.461928 11.84573 4.470705 11.837856 4.478498 C 11.814477 4.501958 11.78708 4.513688 11.755827 4.513688 C 11.724574 4.513688 11.700212 4.49999 11.682658 4.472674 C 11.665022 4.445277 11.662069 4.417961 11.673799 4.390646 C 11.677736 4.371123 11.68356 4.354471 11.691435 4.340854 C 11.699228 4.327156 11.705052 4.312473 11.708989 4.296887 L 11.785193 4.167939 C 11.789049 4.160146 11.792986 4.151369 11.796841 4.141608 C 11.800779 4.131846 11.796841 4.1211 11.785193 4.10937 C 11.746066 4.148416 11.708005 4.191399 11.670928 4.238319 C 11.633769 4.285157 11.595708 4.331995 11.556662 4.378916 C 11.298847 4.699237 11.052762 5.030303 10.818325 5.372033 C 10.58397 5.713846 10.34379 6.050818 10.097623 6.382787 C 9.851538 6.714838 9.581993 7.027366 9.289069 7.32029 C 9.285132 7.324227 9.283163 7.330051 9.283163 7.337926 C 9.283163 7.345719 9.281277 7.35548 9.277339 7.36721 L 9.376922 7.36721 C 9.525393 7.36721 9.67288 7.363273 9.819301 7.35548 C 9.965804 7.347687 10.111322 7.34375 10.255856 7.34375 C 10.330092 7.34375 10.402359 7.344734 10.472657 7.346703 C 10.542955 7.348672 10.615222 7.349574 10.689458 7.349574 C 10.794947 7.349574 10.899451 7.352527 11.002971 7.358433 C 11.106408 7.364257 11.208944 7.37894 11.310577 7.402318 C 11.337892 7.406256 11.365208 7.413064 11.392605 7.422825 C 11.419921 7.432587 11.443381 7.445301 11.462904 7.460969 C 11.505887 7.488284 11.527378 7.525361 11.527378 7.572281 C 11.527378 7.611327 11.517617 7.640611 11.498012 7.660133 C 11.478489 7.679656 11.456998 7.689418 11.43362 7.689418 C 11.406222 7.689418 11.386699 7.67777 11.374969 7.654309 C 11.359384 7.623057 11.338877 7.601565 11.313448 7.589835 C 11.288101 7.578105 11.259801 7.570312 11.228549 7.566375 C 11.13479 7.558582 11.041032 7.55079 10.947273 7.542997 C 10.853515 7.535122 10.759756 7.529298 10.665998 7.525361 C 10.603492 7.521505 10.540987 7.519537 10.478481 7.519537 C 10.415975 7.519537 10.351583 7.519537 10.28514 7.519537 C 10.097623 7.519537 9.909204 7.52249 9.719718 7.528314 C 9.530233 7.53422 9.339845 7.541028 9.148473 7.548821 C 9.140598 7.556614 9.131821 7.565391 9.122059 7.575234 C 9.112298 7.584995 9.103521 7.595741 9.095728 7.607389 C 8.728487 8.099642 8.413088 8.624049 8.149449 9.180694 C 7.885728 9.737338 7.646451 10.306616 7.431618 10.888689 C 7.369113 11.064476 7.311529 11.242149 7.258784 11.421874 C 7.20604 11.601598 7.164042 11.783209 7.132789 11.966788 C 7.117203 12.048817 7.105473 12.130845 7.097681 12.212873 C 7.089806 12.294902 7.087919 12.378899 7.091775 12.464865 C 7.095712 12.542956 7.111297 12.623015 7.138695 12.705044 C 7.158218 12.759757 7.187502 12.80274 7.226547 12.833992 C 7.265593 12.865245 7.312513 12.888705 7.367226 12.904291 C 7.390604 12.908228 7.414064 12.911099 7.437524 12.913068 C 7.460902 12.915036 7.484363 12.916021 7.507823 12.916021 C 7.527345 12.916021 7.546868 12.916021 7.566391 12.916021 C 7.585914 12.916021 7.60355 12.914052 7.619135 12.910197 C 7.712894 12.894529 7.804683 12.873038 7.894505 12.845722 C 7.984408 12.818325 8.07226 12.785186 8.158226 12.746058 C 8.361328 12.656237 8.558606 12.558623 8.749979 12.453135 C 8.941433 12.347646 9.128868 12.234365 9.312529 12.113291 C 9.570345 11.945297 9.820285 11.770494 10.062515 11.588883 C 10.304663 11.407191 10.542955 11.216803 10.77731 11.017556 C 10.992225 10.833976 11.204104 10.650397 11.413113 10.466817 C 11.622039 10.283237 11.834 10.101545 12.048833 9.921902 C 12.087878 9.89065 12.125939 9.857428 12.163098 9.822238 C 12.200175 9.78713 12.236349 9.749971 12.271458 9.710925 C 12.267602 9.69534 12.262681 9.681641 12.256857 9.669911 C 12.250951 9.658181 12.24808 9.646451 12.24808 9.634803 C 12.24808 9.607406 12.255872 9.582059 12.271458 9.558599 C 12.298855 9.519553 12.331995 9.492156 12.371122 9.47657 C 12.410168 9.460903 12.451182 9.45311 12.494165 9.45311 C 12.572256 9.45311 12.611301 9.4883 12.611301 9.558599 C 12.611301 9.585914 12.607446 9.607406 12.599571 9.623073 C 12.587923 9.646451 12.576193 9.667942 12.564463 9.687465 C 12.552733 9.70707 12.537148 9.726593 12.517543 9.746116 C 12.466767 9.796891 12.415992 9.847667 12.365216 9.898442 C 12.314441 9.949218 12.261696 9.998025 12.207065 10.044945 C 11.988296 10.228525 11.768542 10.415057 11.547885 10.604461 C 11.327147 10.793946 11.107393 10.982447 10.888705 11.169882 C 10.61916 11.400382 10.335916 11.624976 10.039055 11.843746 C 9.800762 12.02347 9.554677 12.193351 9.300799 12.353552 C 9.046839 12.513672 8.785169 12.660174 8.515624 12.792978 C 8.39455 12.851546 8.273476 12.904291 8.15232 12.951211 C 8.031246 12.998049 7.906235 13.039063 7.777368 13.074254 C 7.691402 13.097632 7.601581 13.109362 7.507823 13.109362 C 7.45311 13.109362 7.39651 13.103538 7.33786 13.091808 C 7.16601 13.056617 7.046905 12.959004 6.980462 12.798802 C 6.964877 12.755819 6.953147 12.712919 6.945272 12.669936 C 6.937479 12.626953 6.929687 12.58397 6.921894 12.540987 C 6.917957 12.513672 6.915988 12.488243 6.915988 12.464865 C 6.915988 12.441405 6.915988 12.415976 6.915988 12.38866 C 6.915988 12.287109 6.922878 12.185558 6.936495 12.084007 C 6.950194 11.982456 6.968732 11.882791 6.992192 11.785177 C 7.054698 11.523425 7.128934 11.267578 7.214817 11.017556 C 7.300783 10.767615 7.394541 10.521448 7.496093 10.2793 C 7.68361 9.830113 7.89352 9.394542 8.125989 8.97267 C 8.358375 8.550798 8.593715 8.130894 8.832007 7.712878 L 8.902305 7.589835 C 8.902305 7.589835 8.901403 7.588851 8.899434 7.586882 C 8.897466 7.584995 8.896481 7.582042 8.896481 7.578105 C 8.884751 7.566375 8.878927 7.560551 8.878927 7.560551 C 8.273476 7.560551 7.667942 7.584011 7.062491 7.630849 C 6.457039 7.67777 5.851587 7.716815 5.246054 7.748068 C 5.218738 7.779321 5.191423 7.816398 5.164025 7.85938 C 4.945338 8.187494 4.727552 8.515608 4.510751 8.843721 C 4.29395 9.171835 4.089864 9.505854 3.898409 9.845698 C 3.882824 9.873013 3.867156 9.899427 3.851571 9.924773 C 3.835904 9.950202 3.824256 9.978502 3.816381 10.009755 C 3.734353 10.283237 3.631817 10.547861 3.508774 10.803708 C 3.385732 11.059554 3.253912 11.310561 3.113316 11.556646 C 2.98043 11.794939 2.841802 12.029294 2.697268 12.259794 C 2.552733 12.490211 2.404262 12.720711 2.251935 12.951211 C 2.146447 13.107393 2.04104 13.26661 1.935552 13.428698 C 1.830063 13.590786 1.726543 13.751972 1.624992 13.912092 C 1.554694 14.021517 1.486364 14.130861 1.419921 14.240205 C 1.353478 14.349631 1.287117 14.460944 1.220674 14.574225 C 1.208944 14.58981 1.198281 14.605478 1.188437 14.621063 C 1.178676 14.63673 1.16793 14.650429 1.156282 14.662077 C 1.132822 14.685537 1.103538 14.691443 1.068348 14.679713 Z M 4.003898 9.376988 C 4.011691 9.369113 4.018581 9.360336 4.024405 9.350575 C 4.030311 9.340813 4.035151 9.332036 4.039088 9.324244 L 4.197239 9.078158 C 4.326187 8.878911 4.456038 8.679664 4.586874 8.480499 C 4.717791 8.281252 4.843787 8.080119 4.96486 7.876935 C 4.972653 7.861349 4.983399 7.844697 4.997098 7.827143 C 5.010714 7.809589 5.013667 7.787113 5.005875 7.759798 C 4.748059 7.771446 4.490244 7.788098 4.232429 7.809589 C 3.974614 7.831081 3.718767 7.841826 3.464807 7.841826 C 3.460952 7.841826 3.455046 7.843713 3.447253 7.84765 C 3.43946 7.851588 3.429699 7.855443 3.417969 7.85938 L 3.482443 7.917949 C 3.513696 7.949202 3.546836 7.981439 3.582026 8.01466 C 3.617216 8.047882 3.648469 8.082006 3.675784 8.117196 C 3.882824 8.371074 3.986344 8.660142 3.986344 8.9844 C 3.986344 9.039031 3.985359 9.094728 3.983391 9.151328 C 3.981422 9.208009 3.980438 9.263707 3.980438 9.318337 C 3.980438 9.326212 3.980438 9.335974 3.980438 9.347622 C 3.980438 9.359352 3.988312 9.369113 4.003898 9.376988 Z M 4.003898 9.376988 " stroke="#ffffff" stroke-width="0.3" stroke-opacity="1" stroke-miterlimit="4"/><g fill="#ffffff" fill-opacity="1"><g transform="translate(403.790091, 822.3593)"><g><path d="M 2.515625 175.234375 C 0.460938 174.296875 -0.28125 172.804688 0.28125 170.765625 C 0.65625 169.648438 1.117188 168.441406 1.671875 167.140625 C 2.597656 165.085938 3.617188 163.128906 4.734375 161.265625 C 5.859375 159.410156 6.976562 157.554688 8.09375 155.703125 C 15.90625 141.929688 23.8125 128.160156 31.8125 114.390625 C 39.8125 100.628906 47.71875 86.960938 55.53125 73.390625 C 66.5 54.035156 77.472656 34.78125 88.453125 15.625 C 99.429688 -3.53125 110.40625 -22.691406 121.375 -41.859375 L 124.71875 -49.109375 C 126.957031 -55.992188 128.863281 -62.875 130.4375 -69.75 C 132.019531 -76.632812 132.8125 -83.707031 132.8125 -90.96875 C 132.8125 -95.988281 132.394531 -100.914062 131.5625 -105.75 C 130.726562 -110.582031 129.191406 -115.328125 126.953125 -119.984375 C 123.984375 -125.929688 120.21875 -131.140625 115.65625 -135.609375 C 111.101562 -140.078125 105.847656 -143.796875 99.890625 -146.765625 C 95.609375 -148.816406 91.609375 -149.75 87.890625 -149.5625 C 85.472656 -149.375 83.144531 -149.375 80.90625 -149.5625 C 78.675781 -149.75 76.351562 -149.84375 73.9375 -149.84375 C 73.382812 -149.84375 72.828125 -149.890625 72.265625 -149.984375 C 71.710938 -150.078125 71.15625 -150.125 70.59375 -150.125 C 67.613281 -150.675781 66.125 -152.347656 66.125 -155.140625 L 66.125 -155.703125 C 66.125 -158.117188 67.519531 -159.601562 70.3125 -160.15625 C 71.0625 -160.34375 71.757812 -160.484375 72.40625 -160.578125 C 73.0625 -160.671875 73.664062 -160.71875 74.21875 -160.71875 L 88.734375 -159.890625 C 90.222656 -159.703125 91.570312 -159.515625 92.78125 -159.328125 C 93.988281 -159.140625 95.242188 -159.046875 96.546875 -159.046875 C 101.191406 -159.046875 105.835938 -159.1875 110.484375 -159.46875 C 115.140625 -159.75 119.796875 -159.976562 124.453125 -160.15625 C 130.960938 -160.34375 137.519531 -160.671875 144.125 -161.140625 C 150.726562 -161.609375 157.375 -161.929688 164.0625 -162.109375 C 169.644531 -162.296875 175.226562 -162.53125 180.8125 -162.8125 C 186.394531 -163.09375 191.972656 -163.328125 197.546875 -163.515625 C 206.847656 -176.910156 216.148438 -190.207031 225.453125 -203.40625 C 234.753906 -216.613281 243.867188 -229.914062 252.796875 -243.3125 C 253.171875 -243.6875 253.40625 -244.101562 253.5 -244.5625 C 253.59375 -245.03125 253.734375 -245.359375 253.921875 -245.546875 C 253.734375 -245.734375 253.546875 -245.921875 253.359375 -246.109375 C 253.171875 -246.296875 252.890625 -246.390625 252.515625 -246.390625 C 250.285156 -246.390625 248.613281 -247.222656 247.5 -248.890625 C 247.125 -249.453125 246.9375 -250.476562 246.9375 -251.96875 C 246.9375 -253.082031 247.03125 -253.914062 247.21875 -254.46875 C 248.519531 -258.195312 250.472656 -261.640625 253.078125 -264.796875 C 254.003906 -265.722656 255.023438 -266.1875 256.140625 -266.1875 C 257.265625 -266.1875 258.382812 -266.28125 259.5 -266.46875 C 264.144531 -272.425781 268.789062 -278.425781 273.4375 -284.46875 C 278.09375 -290.519531 282.65625 -296.519531 287.125 -302.46875 C 298.09375 -317.351562 308.972656 -332.375 319.765625 -347.53125 C 330.554688 -362.6875 341.066406 -377.894531 351.296875 -393.15625 C 352.785156 -395.195312 354.226562 -397.285156 355.625 -399.421875 C 357.019531 -401.566406 358.460938 -403.570312 359.953125 -405.4375 C 361.441406 -407.101562 362.835938 -408.492188 364.140625 -409.609375 C 365.066406 -410.171875 365.898438 -410.453125 366.640625 -410.453125 C 367.753906 -410.453125 368.773438 -410.078125 369.703125 -409.328125 C 370.640625 -408.585938 371.109375 -407.566406 371.109375 -406.265625 C 371.109375 -404.035156 370.644531 -402.175781 369.71875 -400.6875 C 368.601562 -398.820312 367.625 -396.957031 366.78125 -395.09375 C 365.945312 -393.238281 364.972656 -391.382812 363.859375 -389.53125 C 360.316406 -383.757812 356.6875 -377.988281 352.96875 -372.21875 C 349.25 -366.457031 345.4375 -360.785156 341.53125 -355.203125 L 258.65625 -237.453125 C 251.03125 -226.472656 243.359375 -215.492188 235.640625 -204.515625 C 227.921875 -193.546875 220.15625 -182.578125 212.34375 -171.609375 C 211.59375 -170.671875 210.9375 -169.644531 210.375 -168.53125 C 209.820312 -167.414062 209.082031 -166.300781 208.15625 -165.1875 C 209.644531 -164.4375 210.664062 -164.0625 211.21875 -164.0625 C 221.082031 -164.0625 230.988281 -164.382812 240.9375 -165.03125 C 250.894531 -165.6875 260.800781 -166.296875 270.65625 -166.859375 L 301.625 -168.53125 C 314.46875 -169.28125 327.304688 -170.117188 340.140625 -171.046875 C 352.972656 -171.972656 365.804688 -172.4375 378.640625 -172.4375 C 379.203125 -172.4375 379.757812 -172.4375 380.3125 -172.4375 C 380.875 -172.4375 381.523438 -172.53125 382.265625 -172.71875 L 384.21875 -175.234375 C 397.238281 -195.140625 410.910156 -214.484375 425.234375 -233.265625 C 439.566406 -252.054688 454.078125 -270.660156 468.765625 -289.078125 C 476.390625 -298.566406 484.203125 -307.957031 492.203125 -317.25 C 500.203125 -326.550781 508.015625 -335.945312 515.640625 -345.4375 C 517.878906 -348.226562 520.207031 -350.832031 522.625 -353.25 C 524.113281 -354.738281 525.507812 -355.851562 526.8125 -356.59375 C 527.363281 -356.96875 528.195312 -357.15625 529.3125 -357.15625 C 532.101562 -357.15625 533.6875 -355.664062 534.0625 -352.6875 C 534.4375 -351.757812 534.4375 -350.738281 534.0625 -349.625 C 533.6875 -348.507812 533.359375 -347.394531 533.078125 -346.28125 C 532.804688 -345.164062 532.484375 -344.140625 532.109375 -343.203125 C 530.804688 -339.859375 529.316406 -336.554688 527.640625 -333.296875 C 525.972656 -330.046875 524.207031 -326.835938 522.34375 -323.671875 C 521.414062 -321.992188 520.4375 -320.363281 519.40625 -318.78125 C 518.382812 -317.207031 517.597656 -315.394531 517.046875 -313.34375 C 516.859375 -312.789062 516.625 -312.28125 516.34375 -311.8125 C 516.0625 -311.351562 515.738281 -310.9375 515.375 -310.5625 C 514.25 -309.445312 512.945312 -308.890625 511.46875 -308.890625 C 509.976562 -308.890625 508.8125 -309.539062 507.96875 -310.84375 C 507.132812 -312.144531 507 -313.445312 507.5625 -314.75 C 507.738281 -315.675781 508.015625 -316.460938 508.390625 -317.109375 C 508.765625 -317.765625 509.046875 -318.460938 509.234375 -319.203125 L 512.859375 -325.34375 C 513.046875 -325.71875 513.226562 -326.132812 513.40625 -326.59375 C 513.59375 -327.0625 513.410156 -327.578125 512.859375 -328.140625 C 510.992188 -326.273438 509.175781 -324.226562 507.40625 -322 C 505.644531 -319.769531 503.832031 -317.535156 501.96875 -315.296875 C 489.695312 -300.046875 477.976562 -284.28125 466.8125 -268 C 455.65625 -251.726562 444.21875 -235.6875 432.5 -219.875 C 420.78125 -204.0625 407.941406 -189.179688 393.984375 -175.234375 C 393.804688 -175.046875 393.71875 -174.765625 393.71875 -174.390625 C 393.71875 -174.015625 393.625 -173.550781 393.4375 -173 L 398.171875 -173 C 405.242188 -173 412.265625 -173.179688 419.234375 -173.546875 C 426.210938 -173.921875 433.144531 -174.109375 440.03125 -174.109375 C 443.5625 -174.109375 447 -174.0625 450.34375 -173.96875 C 453.695312 -173.875 457.140625 -173.828125 460.671875 -173.828125 C 465.703125 -173.828125 470.679688 -173.6875 475.609375 -173.40625 C 480.535156 -173.132812 485.414062 -172.441406 490.25 -171.328125 C 491.550781 -171.140625 492.851562 -170.8125 494.15625 -170.34375 C 495.457031 -169.882812 496.578125 -169.28125 497.515625 -168.53125 C 499.554688 -167.226562 500.578125 -165.460938 500.578125 -163.234375 C 500.578125 -161.367188 500.113281 -159.972656 499.1875 -159.046875 C 498.257812 -158.117188 497.234375 -157.65625 496.109375 -157.65625 C 494.804688 -157.65625 493.878906 -158.210938 493.328125 -159.328125 C 492.578125 -160.816406 491.597656 -161.835938 490.390625 -162.390625 C 489.179688 -162.953125 487.832031 -163.328125 486.34375 -163.515625 C 481.882812 -163.878906 477.421875 -164.25 472.953125 -164.625 C 468.492188 -165 464.03125 -165.28125 459.5625 -165.46875 C 456.582031 -165.65625 453.601562 -165.75 450.625 -165.75 C 447.65625 -165.75 444.585938 -165.75 441.421875 -165.75 C 432.492188 -165.75 423.519531 -165.609375 414.5 -165.328125 C 405.476562 -165.046875 396.410156 -164.71875 387.296875 -164.34375 C 386.921875 -163.976562 386.5 -163.5625 386.03125 -163.09375 C 385.570312 -162.625 385.15625 -162.113281 384.78125 -161.5625 C 367.289062 -138.125 352.269531 -113.148438 339.71875 -86.640625 C 327.164062 -60.128906 315.769531 -33.015625 305.53125 -5.296875 C 302.5625 3.066406 299.820312 11.523438 297.3125 20.078125 C 294.800781 28.640625 292.800781 37.296875 291.3125 46.046875 C 290.5625 49.953125 290 53.859375 289.625 57.765625 C 289.257812 61.671875 289.171875 65.664062 289.359375 69.75 C 289.546875 73.476562 290.289062 77.296875 291.59375 81.203125 C 292.519531 83.804688 293.910156 85.847656 295.765625 87.328125 C 297.628906 88.816406 299.863281 89.9375 302.46875 90.6875 C 303.582031 90.875 304.695312 91.015625 305.8125 91.109375 C 306.925781 91.203125 308.046875 91.25 309.171875 91.25 C 310.097656 91.25 311.023438 91.25 311.953125 91.25 C 312.878906 91.25 313.71875 91.15625 314.46875 90.96875 C 318.925781 90.21875 323.296875 89.191406 327.578125 87.890625 C 331.859375 86.585938 336.046875 85.007812 340.140625 83.15625 C 349.804688 78.875 359.195312 74.222656 368.3125 69.203125 C 377.425781 64.179688 386.359375 58.785156 395.109375 53.015625 C 407.378906 45.015625 419.28125 36.6875 430.8125 28.03125 C 442.351562 19.382812 453.703125 10.320312 464.859375 0.84375 C 475.085938 -7.90625 485.175781 -16.648438 495.125 -25.390625 C 505.082031 -34.128906 515.175781 -42.78125 525.40625 -51.34375 C 527.269531 -52.832031 529.082031 -54.410156 530.84375 -56.078125 C 532.613281 -57.753906 534.335938 -59.523438 536.015625 -61.390625 C 535.828125 -62.128906 535.59375 -62.773438 535.3125 -63.328125 C 535.039062 -63.890625 534.90625 -64.453125 534.90625 -65.015625 C 534.90625 -66.316406 535.273438 -67.523438 536.015625 -68.640625 C 537.316406 -70.503906 538.894531 -71.804688 540.75 -72.546875 C 542.613281 -73.285156 544.570312 -73.65625 546.625 -73.65625 C 550.34375 -73.65625 552.203125 -71.984375 552.203125 -68.640625 C 552.203125 -67.335938 552.015625 -66.316406 551.640625 -65.578125 C 551.085938 -64.453125 550.53125 -63.425781 549.96875 -62.5 C 549.40625 -61.570312 548.660156 -60.644531 547.734375 -59.71875 C 545.316406 -57.289062 542.898438 -54.867188 540.484375 -52.453125 C 538.066406 -50.035156 535.554688 -47.710938 532.953125 -45.484375 C 522.535156 -36.742188 512.070312 -27.859375 501.5625 -18.828125 C 491.050781 -9.804688 480.585938 -0.832031 470.171875 8.09375 C 457.328125 19.0625 443.835938 29.757812 429.703125 40.1875 C 418.359375 48.738281 406.640625 56.828125 394.546875 64.453125 C 382.453125 72.078125 369.988281 79.054688 357.15625 85.390625 C 351.394531 88.171875 345.628906 90.675781 339.859375 92.90625 C 334.085938 95.144531 328.132812 97.101562 322 98.78125 C 317.90625 99.894531 313.628906 100.453125 309.171875 100.453125 C 306.566406 100.453125 303.867188 100.171875 301.078125 99.609375 C 292.890625 97.941406 287.210938 93.289062 284.046875 85.65625 C 283.304688 83.613281 282.75 81.566406 282.375 79.515625 C 282 77.472656 281.628906 75.429688 281.265625 73.390625 C 281.078125 72.085938 280.984375 70.875 280.984375 69.75 C 280.984375 68.632812 280.984375 67.425781 280.984375 66.125 C 280.984375 61.289062 281.304688 56.453125 281.953125 51.609375 C 282.609375 46.773438 283.492188 42.035156 284.609375 37.390625 C 287.585938 24.921875 291.125 12.734375 295.21875 0.828125 C 299.3125 -11.066406 303.773438 -22.785156 308.609375 -34.328125 C 317.535156 -55.710938 327.53125 -76.445312 338.59375 -96.53125 C 349.664062 -116.625 360.875 -136.625 372.21875 -156.53125 L 375.578125 -162.390625 C 375.578125 -162.390625 375.53125 -162.4375 375.4375 -162.53125 C 375.34375 -162.625 375.296875 -162.765625 375.296875 -162.953125 C 374.734375 -163.515625 374.453125 -163.796875 374.453125 -163.796875 C 345.617188 -163.796875 316.785156 -162.675781 287.953125 -160.4375 C 259.117188 -158.207031 230.285156 -156.347656 201.453125 -154.859375 C 200.148438 -153.367188 198.847656 -151.601562 197.546875 -149.5625 C 187.128906 -133.9375 176.757812 -118.3125 166.4375 -102.6875 C 156.113281 -87.0625 146.394531 -71.15625 137.28125 -54.96875 C 136.539062 -53.664062 135.796875 -52.410156 135.046875 -51.203125 C 134.304688 -49.992188 133.75 -48.644531 133.375 -47.15625 C 129.46875 -34.132812 124.582031 -21.53125 118.71875 -9.34375 C 112.863281 2.832031 106.585938 14.785156 99.890625 26.515625 C 93.566406 37.859375 86.960938 49.015625 80.078125 59.984375 C 73.191406 70.960938 66.125 81.941406 58.875 92.921875 C 53.851562 100.359375 48.832031 107.9375 43.8125 115.65625 C 38.789062 123.375 33.859375 131.046875 29.015625 138.671875 C 25.671875 143.878906 22.414062 149.085938 19.25 154.296875 C 16.09375 159.503906 12.929688 164.804688 9.765625 170.203125 C 9.203125 170.953125 8.6875 171.695312 8.21875 172.4375 C 7.757812 173.1875 7.253906 173.835938 6.703125 174.390625 C 5.578125 175.503906 4.179688 175.785156 2.515625 175.234375 Z M 142.3125 -77.296875 C 142.675781 -77.660156 143 -78.078125 143.28125 -78.546875 C 143.5625 -79.015625 143.796875 -79.429688 143.984375 -79.796875 L 151.515625 -91.515625 C 157.648438 -101.003906 163.832031 -110.492188 170.0625 -119.984375 C 176.300781 -129.472656 182.300781 -139.050781 188.0625 -148.71875 C 188.4375 -149.46875 188.945312 -150.257812 189.59375 -151.09375 C 190.25 -151.925781 190.390625 -152.992188 190.015625 -154.296875 C 177.742188 -153.742188 165.46875 -152.953125 153.1875 -151.921875 C 140.90625 -150.898438 128.722656 -150.390625 116.640625 -150.390625 C 116.453125 -150.390625 116.171875 -150.296875 115.796875 -150.109375 C 115.421875 -149.929688 114.957031 -149.75 114.40625 -149.5625 L 117.46875 -146.765625 C 118.957031 -145.273438 120.535156 -143.738281 122.203125 -142.15625 C 123.878906 -140.582031 125.367188 -138.957031 126.671875 -137.28125 C 136.535156 -125.1875 141.46875 -111.421875 141.46875 -95.984375 C 141.46875 -93.378906 141.421875 -90.726562 141.328125 -88.03125 C 141.234375 -85.332031 141.1875 -82.679688 141.1875 -80.078125 C 141.1875 -79.710938 141.1875 -79.25 141.1875 -78.6875 C 141.1875 -78.125 141.5625 -77.660156 142.3125 -77.296875 Z M 142.3125 -77.296875 "/></g></g></g></svg>